<svg xmlns="http://www.w3.org/2000/svg" aria-hidden="true" style="position:absolute;width:0;height:0;overflow:hidden">
 <defs>
  <symbol id="icon-instagram" viewBox="0 0 32 32">
   <path fill="none" stroke="#f7f7f7" stroke-linecap="round" stroke-linejoin="round" stroke-width="2.08"
    d="M22.666 2.666H9.333a6.667 6.667 0 0 0-6.667 6.667v13.333a6.667 6.667 0 0 0 6.667 6.667h13.333a6.667 6.667 0 0 0 6.667-6.667V9.333a6.667 6.667 0 0 0-6.667-6.667z"
    style="stroke:var(--color1, #f7f7f7)" />
   <path fill="none" stroke="#f7f7f7" stroke-linecap="round" stroke-linejoin="round" stroke-width="2.08"
    d="M21.334 15.16a5.338 5.338 0 0 1-6.123 6.049 5.334 5.334 0 0 1-3.916-7.663 5.338 5.338 0 0 1 5.547-2.878 5.334 5.334 0 0 1 4.493 4.493zM23.334 8.666h.016"
    style="stroke:var(--color1, #f7f7f7)" />
  </symbol>
  <symbol id="icon-facebook" viewBox="0 0 32 32">
   <path fill="none" stroke="#f7f7f7" stroke-linecap="round" stroke-linejoin="round" stroke-width="2.08"
    d="M24.001 2.666h-4a6.67 6.67 0 0 0-6.667 6.667v4h-4v5.333h4v10.667h5.333V18.666h4L24 13.333h-5.333v-4a1.335 1.335 0 0 1 1.334-1.334h4V2.666z"
    style="stroke:var(--color1, #f7f7f7)" />
  </symbol>
  <symbol id="icon-twitter" viewBox="0 0 32 32">
   <path fill="none" stroke="#f7f7f7" stroke-linecap="round" stroke-linejoin="round" stroke-width="2.08"
    d="M30.668 4.001a14.542 14.542 0 0 1-4.187 2.04 5.975 5.975 0 0 0-6.637-1.661 5.977 5.977 0 0 0-3.843 5.661v1.333a14.211 14.211 0 0 1-12-6.04s-5.333 12 6.667 17.333a15.519 15.519 0 0 1-9.333 2.667c12 6.667 26.667 0 26.667-15.333a5.966 5.966 0 0 0-.107-1.107 10.288 10.288 0 0 0 2.773-4.893z"
    style="stroke:var(--color1, #f7f7f7)" />
  </symbol>
  <symbol id="close-icon" viewBox="0 0 32 32">
   <path fill="none" stroke="#f7f7f7" stroke-linecap="round" stroke-linejoin="round" stroke-width="4"
    d="M30 2 2 30M2 2l28 28" style="stroke:var(--color1, #f7f7f7)" />
  </symbol>
  <symbol id="menu-icon" viewBox="0 0 48 32">
   <path fill="none" stroke="#f7f7f7" stroke-linecap="round" stroke-linejoin="round" stroke-width="4"
    d="M3 16h42M3 2h42M3 30h28" style="stroke:var(--color1, #f7f7f7)" />
  </symbol>
 </defs>
</svg>