<svg xmlns="http://www.w3.org/2000/svg" aria-hidden="true" style="position:absolute;width:0;height:0;overflow:hidden">
  <defs>
    <symbol id="instagram" viewBox="0 0 32 32">
      <path stroke-linecap="round" stroke-linejoin="round" stroke-width="2"
        d="M22.667 2.667H9.334a6.667 6.667 0 0 0-6.667 6.667v13.333a6.667 6.667 0 0 0 6.667 6.667h13.333a6.667 6.667 0 0 0 6.667-6.667V9.334a6.667 6.667 0 0 0-6.667-6.667z" />
      <path stroke-linecap="round" stroke-linejoin="round" stroke-width="2"
        d="M21.333 15.16a5.329 5.329 0 0 1-2.878 5.546 5.337 5.337 0 0 1-6.169-.992 5.33 5.33 0 0 1 1.316-8.505 5.336 5.336 0 0 1 6.228.962 5.328 5.328 0 0 1 1.504 2.989zM23.333 8.667h.016" />
    </symbol>
    <symbol id="burger" viewBox="0 0 46 32">
      <path stroke-linecap="round" stroke-linejoin="round" stroke-width="3.556"
        d="M1.778 16h42.667M1.778 1.778h42.667M1.778 30.222h28.444" />
    </symbol>
    <symbol id="close" viewBox="0 0 32 32">
      <path stroke-linecap="round" stroke-linejoin="round" stroke-width="3.6"
        d="M29.333 2.667 2.666 29.334m.001-26.667 26.667 26.667" />
    </symbol>
    <symbol id="twitter" viewBox="0 0 38 32">
      <path stroke-linecap="round" stroke-linejoin="round" stroke-width="2.4"
        d="M36.8 1.6a17.446 17.446 0 0 1-5.024 2.448 7.172 7.172 0 0 0-7.965-1.993 7.172 7.172 0 0 0-4.612 6.793v1.6A17.058 17.058 0 0 1 4.799 3.2s-6.4 14.4 8 20.8a18.625 18.625 0 0 1-11.2 3.2c14.4 8 32 0 32-18.4a7.131 7.131 0 0 0-.128-1.328A12.354 12.354 0 0 0 36.799 1.6z" />
    </symbol>
    <symbol id="facebook" viewBox="0 0 19 32">
      <path stroke-linecap="round" stroke-linejoin="round" stroke-width="2.182"
        d="M17.455 1.455h-4.364a7.273 7.273 0 0 0-7.273 7.273v4.364H1.454v5.818h4.364v11.636h5.818V18.91H16l1.455-5.818h-5.818V8.728a1.455 1.455 0 0 1 1.455-1.455h4.364V1.455z" />
    </symbol>
    <symbol id="select-arrow" viewBox="0 0 19 32">
      <path stroke="F7F7F7" stroke-linecap="round" stroke-linejoin="round" stroke-width="1.8" d="m5 7.5 5 5 5-5" />
    </symbol>
    <!-- <symbol id="next" viewBox="0 0 24 24">
      <path d="M1.33138 10.6681L5.99805 6.00143L1.33138 1.33476" stroke-width="1.8" stroke-linecap="round"
        stroke-linejoin="round" />

    </symbol> -->
    <!-- <symbol id="prev" viewBox="0 0 24 24">
      <path d="M5.66569 10.6669L0.999023 6.0002L5.66569 1.33353" stroke-width="1.8" stroke-linecap="round"
        stroke-linejoin="round" />

    </symbol> -->


    <symbol id="prev" viewBox="0 0 24 24">
      <path d="M14.666 16.667 9.999 12l4.667-4.666" stroke-width="1.8" stroke-linecap="round" stroke-linejoin="round" />

    </symbol>
    <symbol id="next" viewBox="0 0 24 24">
      <path d="m9.331 16.668 4.667-4.666-4.667-4.667" stroke-width="1.8" stroke-linecap="round"
        stroke-linejoin="round" />

    </symbol>
  </defs>
</svg>